<svg id="Capa_1" enable-background="new 0 0 512.513 512.513" height="512" viewBox="0 0 512.513 512.513" width="512" xmlns="http://www.w3.org/2000/svg"><g><path d="m366.619 106.478c13.782-4.774 24.88-14.63 31.249-27.752 6.369-13.121 7.248-27.937 2.474-41.719s-14.63-24.88-27.751-31.249c-13.121-6.37-27.937-7.25-41.72-2.474-13.782 4.774-24.88 14.63-31.249 27.751v-.001c-12.536 25.826-2.8 56.771 21.609 70.995l7.526 3.653c12.124 4.793 25.412 5.108 37.862.796z"/><path d="m511.534 125.26c-1.527-4.408-4.65-7.944-8.792-9.955-8.619-4.183-19.033-.575-23.217 8.043l-28.362 58.429c-1.737 3.578-4.825 6.32-8.584 7.623-3.76 1.301-7.882 1.058-11.46-.68l-267.612-129.905c-4.144-2.01-8.853-2.277-13.261-.75-4.409 1.526-7.944 4.649-9.956 8.792l-42.5 87.554c-2.011 4.142-2.277 8.852-.75 13.26 1.527 4.409 4.65 7.945 8.792 9.956 8.618 4.182 19.033.575 23.217-8.043l28.362-58.429c1.737-3.578 4.825-6.32 8.584-7.623 3.759-1.301 7.882-1.058 11.46.68l50.91 24.713c3.62 1.757 6.382 4.895 7.666 8.708s.982 7.983-.838 11.571c-.109.215-.22.427-.332.639l-.098.187-100.297 206.057c-3.624 7.444-12.591 10.545-20.038 6.93l-68.561-33.28c-5.487-2.663-11.719-3.019-17.548-.998-5.83 2.02-10.507 6.153-13.17 11.64-2.663 5.485-3.018 11.718-.998 17.548 2.02 5.829 6.153 10.507 11.64 13.17l102.734 49.87c5.486 2.662 11.718 3.018 17.548.998s10.507-6.153 13.17-11.64l34.68-71.443c1.741-3.585 4.836-6.331 8.604-7.63 1.588-.548 3.241-.819 4.89-.819 2.262 0 4.518.512 6.589 1.524l120.076 58.713c7.427 3.632 10.516 12.589 6.905 20.026l-33.281 68.561c-5.535 11.402-.761 25.184 10.642 30.719 5.487 2.663 11.719 3.018 17.548.998 5.83-2.021 10.507-6.154 13.17-11.64l49.87-102.735c5.535-11.402.761-25.183-10.642-30.718l-85.826-41.662c-7.453-3.617-10.562-12.592-6.944-20.045l49.053-101.066c.098-.222.197-.443.3-.665 1.694-3.647 4.783-6.463 8.573-7.812 3.79-1.351 7.962-1.12 11.581.637l80.034 38.85c4.144 2.011 8.852 2.277 13.262.75 4.409-1.526 7.944-4.649 9.956-8.793l42.5-87.552c2.012-4.144 2.279-8.854.751-13.263z"/><path d="m15 116.561h42.886c8.284 0 15-6.716 15-15s-6.716-15-15-15h-42.886c-8.284 0-15 6.716-15 15s6.716 15 15 15z"/><path d="m66.273 157.368c-2.394-1.618-5.281-2.563-8.388-2.563h-42.885c-8.284 0-15 6.716-15 15s6.716 15 15 15h42.886c4.632 0 8.771-2.102 11.522-5.401 2.17-2.602 3.478-5.947 3.478-9.599 0-5.177-2.623-9.741-6.613-12.437z"/><path d="m57.886 253.05c8.284 0 15-6.716 15-15s-6.716-15-15-15h-42.886c-8.284 0-15 6.716-15 15s6.716 15 15 15z"/></g></svg>